PathFileType  4	(X/Y/Z) C:\Users\antoi\Documents\MyRepositories\mobilecap\ResultsAnalysis
DataRate	CameraRate	NumFrames	NumMarkers	Units	OrigDataRate	OrigDataStartFrame	OrigNumFrames
100.0	100.0	4	51	mm	100.0	1	231
Frame#	Time	r_knee			r_shank_antsup			r_ankle			r_calc			r_5meta			r_toe			L_knee			L_shank_antsup			L_ankle			L_calc			L_5meta			L_toe			r_sh2			r_sh3			r_sh4			L_sh2			L_sh3			r_thigh1			r_thigh2			r_thigh3			r_thigh4			r_thigh5			L_thigh1			L_thigh2			L_thigh3			L_thigh4			r.ASIS			r.PSIS			L.ASIS			L.PSIS			C7			R_Shoulder			L_Shoulder			R_Sternum			L_Sternum			R_humerus			R_elbow_med			R_elbow_lat			R_forearm			R_wrist_radius			R_wrist_ulna			L_humerus			L_elbow_med			L_elbow_lat			L_forearm			L_wrist_radius			L_wrist_ulna			R_HJC			L_HJC			R_HJC_reg			L_HJC_reg			
		X1	Y1	Z1	X2	Y2	Z2	X3	Y3	Z3	X4	Y4	Z4	X5	Y5	Z5	X6	Y6	Z6	X7	Y7	Z7	X8	Y8	Z8	X9	Y9	Z9	X10	Y10	Z10	X11	Y11	Z11	X12	Y12	Z12	X13	Y13	Z13	X14	Y14	Z14	X15	Y15	Z15	X16	Y16	Z16	X17	Y17	Z17	X18	Y18	Z18	X19	Y19	Z19	X20	Y20	Z20	X21	Y21	Z21	X22	Y22	Z22	X23	Y23	Z23	X24	Y24	Z24	X25	Y25	Z25	X26	Y26	Z26	X27	Y27	Z27	X28	Y28	Z28	X29	Y29	Z29	X30	Y30	Z30	X31	Y31	Z31	X32	Y32	Z32	X33	Y33	Z33	X34	Y34	Z34	X35	Y35	Z35	X36	Y36	Z36	X37	Y37	Z37	X38	Y38	Z38	X39	Y39	Z39	X40	Y40	Z40	X41	Y41	Z41	X42	Y42	Z42	X43	Y43	Z43	X44	Y44	Z44	X45	Y45	Z45	X46	Y46	Z46	X47	Y47	Z47	X48	Y48	Z48	X49	Y49	Z49	X50	Y50	Z50	X51	Y51	Z51	

1	0.00000000	-1165.41947	804.55015	-436.60256	-1199.75844	759.02934	-406.74436	-1233.77721	407.36563	-468.65442	-1292.92397	365.53608	-521.76982	-1115.13172	346.62459	-429.20850	-1072.24710	368.46559	-482.55099	-1162.43096	801.03987	-744.63912	-1145.41376	712.06899	-751.78526	-1240.00029	403.47285	-703.06639	-1300.85657	365.97227	-654.11177	-1121.63160	351.09260	-730.24463	-1078.17079	369.78199	-675.08039	-1211.76478	645.45235	-405.27136	-1131.29091	755.52516	-445.02123	-1144.28831	643.00724	-456.14056	-1229.39954	734.71720	-766.35552	-1248.60603	614.52073	-758.58163	-1128.72306	1098.32170	-400.16509	-1129.83896	983.21081	-395.87535	-1082.00644	963.83844	-418.51964	-1064.26596	1092.61992	-493.11523	-1061.42901	980.72130	-482.82454	-1107.38671	1124.58293	-766.06311	-1114.29321	980.75425	-774.93503	-1222.38073	1124.26669	-772.30111	-1226.58921	984.25690	-750.59676	-1076.31201	1273.06770	-465.14659	-1264.60343	1315.86811	-642.65481	-1072.54711	1257.48754	-701.43556	-1264.17598	1316.24503	-544.27914	-1160.06919	1786.79081	-611.03156	-1107.64124	1748.48050	-446.13774	-1117.20199	1727.67522	-765.47683	-1071.31123	1673.81554	-590.03702	-1069.42683	1669.22693	-625.75528	-1124.32201	1515.60485	-356.03020	-1195.19344	1428.90853	-374.07283	-1152.29690	1428.87328	-327.01723	-1074.73899	1305.30702	-346.57357	-1028.10152	1218.63767	-386.15460	-1049.18169	1206.10826	-347.93872	-1148.00353	1496.68982	-839.56813	-1207.31795	1399.94177	-796.34024	-1184.55195	1401.13371	-852.07714	-1114.64497	1272.50786	-856.69785	-1068.02770	1176.28699	-827.97523	-1103.52871	1162.95257	-851.48757	-1156.25339	1195.73361	-497.88534	-1164.74676	1194.91249	-688.36570	-1111.96711	1357.69173	-668.93804	-1111.28795	1358.29060	-512.63155	
2	0.01000000	-1163.89662	804.52989	-436.54605	-1197.62330	758.59238	-406.89838	-1233.69410	407.25776	-468.75611	-1292.95546	365.53707	-521.75678	-1115.12010	346.62502	-429.27382	-1072.25337	368.52323	-482.53073	-1160.58377	800.55127	-743.89388	-1143.50171	711.35055	-751.34082	-1239.92308	403.54164	-703.03938	-1300.89009	365.98979	-654.03936	-1121.63615	351.14956	-730.21663	-1078.15034	369.84715	-675.01415	-1210.29194	645.00166	-406.19974	-1129.60775	755.05340	-445.23821	-1143.19450	642.63399	-456.55942	-1227.44375	734.64371	-765.96315	-1247.18102	614.44006	-758.17153	-1128.79414	1098.01056	-400.25951	-1129.32675	983.13575	-395.77976	-1081.58911	963.90470	-418.82846	-1064.58186	1092.86205	-493.12742	-1061.32105	981.07499	-483.05845	-1108.21635	1124.49042	-765.69120	-1113.98448	980.65796	-775.02309	-1223.01562	1123.35305	-771.46140	-1226.21133	983.57811	-750.42929	-1076.98310	1272.81693	-465.23467	-1265.18498	1315.92724	-642.48575	-1073.38558	1257.18966	-701.41589	-1264.91760	1316.37960	-544.41435	-1157.18934	1786.48327	-611.10557	-1105.04200	1748.26091	-446.19166	-1114.35268	1727.13026	-765.64866	-1069.00280	1673.11926	-590.13493	-1067.15373	1668.51041	-625.57476	-1123.96534	1515.94962	-355.51321	-1195.60925	1430.10066	-372.70603	-1152.53846	1429.60231	-326.06499	-1075.83049	1305.46963	-345.50336	-1029.80614	1218.54121	-384.90068	-1050.94436	1206.14902	-347.03506	-1147.77104	1496.54096	-839.71413	-1208.04594	1400.32394	-796.45003	-1185.39334	1401.46943	-852.19261	-1117.05135	1271.94206	-857.53392	-1071.51639	1175.43958	-829.16834	-1107.02715	1162.22930	-852.88272	-1157.09414	1195.63561	-497.88448	-1165.70351	1194.79654	-688.35961	-1112.40390	1357.39437	-669.07029	-1111.97804	1358.11487	-512.83417	
3	0.02000000	-1162.14261	804.21865	-436.82245	-1195.54316	758.41299	-407.16315	-1233.64124	407.21514	-468.79519	-1292.97968	365.53986	-521.74514	-1114.99963	346.82831	-429.07258	-1072.26313	368.56428	-482.53441	-1158.60459	800.04121	-743.26687	-1141.51997	710.72917	-750.88000	-1239.84758	403.60859	-703.01880	-1300.92019	365.98185	-653.92811	-1121.63437	351.21066	-730.18868	-1078.15932	369.87547	-674.94082	-1208.93450	644.91303	-406.48182	-1127.80608	754.56794	-445.45503	-1141.94404	642.19392	-456.85298	-1225.30073	734.58934	-765.60797	-1245.76623	614.44214	-757.90017	-1128.75756	1097.48405	-400.62171	-1128.71084	983.03085	-395.70962	-1081.02110	963.97843	-419.20110	-1065.06199	1093.20847	-493.23597	-1061.16120	981.36552	-483.58601	-1108.61584	1124.16047	-765.32868	-1113.59309	980.37149	-774.82150	-1223.57286	1122.45322	-771.09734	-1225.92786	982.59826	-749.87096	-1077.66857	1272.66146	-465.17087	-1265.92666	1315.96549	-642.45604	-1074.24520	1256.81991	-701.58356	-1265.64477	1316.48614	-544.52597	-1154.18039	1786.10152	-611.20104	-1102.28508	1748.06490	-446.35787	-1111.41521	1726.44810	-765.87522	-1066.80353	1672.31068	-590.08652	-1064.84065	1667.70750	-625.51555	-1123.45973	1516.42476	-354.72802	-1195.84193	1431.13174	-371.73284	-1152.78380	1430.29415	-325.23078	-1077.21911	1305.51836	-344.19599	-1031.93962	1218.15941	-383.36461	-1053.24810	1205.88086	-345.72920	-1147.60327	1496.31942	-839.91471	-1208.94768	1400.76217	-796.69554	-1186.33920	1401.76830	-852.56898	-1119.85626	1271.32600	-858.24123	-1075.30548	1174.16267	-830.31631	-1111.18427	1161.38961	-853.85421	-1157.97041	1195.59826	-497.85263	-1166.67290	1194.60481	-688.32285	-1113.03845	1357.20272	-669.26295	-1112.58803	1358.03422	-512.86729	
4	0.03000000	-1160.18442	803.76269	-437.18587	-1193.64617	758.27558	-407.46967	-1233.61375	407.17308	-468.83441	-1292.98950	365.54193	-521.71962	-1114.90064	347.02054	-428.90489	-1072.27074	368.60002	-482.54412	-1156.50116	799.45148	-742.67519	-1139.48945	710.09529	-750.31916	-1239.78388	403.65670	-702.99198	-1300.94108	365.98029	-653.85100	-1121.62741	351.26713	-730.16925	-1078.17500	369.89978	-674.88388	-1207.59748	644.87035	-406.37049	-1125.77409	754.01833	-445.71341	-1140.44851	641.74615	-457.14312	-1223.03940	734.48305	-765.13351	-1244.35325	614.48573	-757.66921	-1128.71652	1097.00465	-400.88336	-1128.00747	982.79888	-395.79788	-1080.39166	964.05714	-419.64857	-1065.42990	1093.65083	-493.57638	-1060.87307	981.67109	-484.11814	-1108.81095	1123.70613	-765.09783	-1113.12967	979.87946	-774.33876	-1224.05287	1121.52314	-771.02693	-1225.59758	981.36719	-748.88176	-1078.40044	1272.50243	-465.00441	-1266.74340	1315.92473	-642.49376	-1075.17612	1256.21570	-701.58310	-1266.40351	1316.55674	-544.66705	-1151.01049	1785.60975	-611.32531	-1099.35175	1747.84449	-446.58058	-1108.30426	1725.61443	-766.07178	-1064.23266	1671.45147	-590.02825	-1062.43785	1666.75711	-625.53904	-1122.73932	1516.88615	-353.92885	-1195.97501	1432.08985	-370.98155	-1153.02923	1431.05316	-324.35985	-1078.92516	1305.35456	-342.65378	-1034.56960	1217.38476	-381.43010	-1056.25726	1205.27704	-343.82746	-1147.46265	1496.07767	-840.41981	-1210.05102	1401.28401	-797.13961	-1187.45012	1402.07818	-853.17745	-1123.01544	1270.67241	-859.22567	-1079.61649	1172.70444	-831.66256	-1115.98061	1160.50991	-854.84875	-1158.97359	1195.57829	-497.65794	-1167.69788	1194.20346	-688.12445	-1113.77064	1356.84339	-669.32833	-1113.22692	1357.85496	-512.80641	
